<svg xmlns="http://www.w3.org/2000/svg" width="800" height="500" viewBox="0 0 800 500" fill="none">
  <defs>
    <linearGradient id="audiox-bg" x1="36" y1="28" x2="760" y2="470" gradientUnits="userSpaceOnUse">
      <stop stop-color="#144A7C"/>
      <stop offset="0.55" stop-color="#1E6F9F"/>
      <stop offset="1" stop-color="#55B38A"/>
    </linearGradient>
  </defs>
  <rect width="800" height="500" rx="28" fill="#F6F8FB"/>
  <rect x="24" y="24" width="752" height="452" rx="28" fill="url(#audiox-bg)"/>
  <rect x="52" y="56" width="146" height="38" rx="19" fill="#FFFFFF" fill-opacity="0.14"/>
  <text x="84" y="81" fill="#FFFFFF" font-family="Arial, Helvetica, sans-serif" font-size="22" font-weight="700">ICLR 2026</text>
  <text x="56" y="172" fill="#FFFFFF" font-family="Arial, Helvetica, sans-serif" font-size="54" font-weight="700">AudioX</text>
  <text x="56" y="219" fill="#D9F2EB" font-family="Arial, Helvetica, sans-serif" font-size="28">Unified framework for</text>
  <text x="56" y="254" fill="#D9F2EB" font-family="Arial, Helvetica, sans-serif" font-size="28">anything-to-audio generation</text>
  <rect x="56" y="330" width="124" height="44" rx="22" fill="#FFFFFF" fill-opacity="0.14"/>
  <rect x="194" y="330" width="124" height="44" rx="22" fill="#FFFFFF" fill-opacity="0.14"/>
  <rect x="332" y="330" width="164" height="44" rx="22" fill="#FFFFFF" fill-opacity="0.14"/>
  <text x="92" y="358" fill="#FFFFFF" font-family="Arial, Helvetica, sans-serif" font-size="22">Audio</text>
  <text x="230" y="358" fill="#FFFFFF" font-family="Arial, Helvetica, sans-serif" font-size="22">Music</text>
  <text x="362" y="358" fill="#FFFFFF" font-family="Arial, Helvetica, sans-serif" font-size="22">Multimodal</text>
  <circle cx="636" cy="205" r="92" fill="#FFFFFF" fill-opacity="0.12"/>
  <path d="M570 212C570 174 600 144 638 144C676 144 706 174 706 212" stroke="#FFFFFF" stroke-width="16" stroke-linecap="round"/>
  <rect x="558" y="202" width="28" height="96" rx="14" fill="#FFFFFF" fill-opacity="0.82"/>
  <rect x="690" y="202" width="28" height="96" rx="14" fill="#FFFFFF" fill-opacity="0.82"/>
  <rect x="597" y="228" width="18" height="44" rx="9" fill="#FFFFFF" fill-opacity="0.72"/>
  <rect x="625" y="210" width="18" height="78" rx="9" fill="#FFFFFF" fill-opacity="0.86"/>
  <rect x="653" y="220" width="18" height="58" rx="9" fill="#FFFFFF" fill-opacity="0.72"/>
</svg>
