<svg xmlns="http://www.w3.org/2000/svg" width="800" height="500" viewBox="0 0 800 500" fill="none">
  <defs>
    <linearGradient id="bg" x1="48" y1="40" x2="752" y2="460" gradientUnits="userSpaceOnUse">
      <stop stop-color="#7A3E00"/>
      <stop offset="1" stop-color="#D97706"/>
    </linearGradient>
  </defs>
  <rect width="800" height="500" rx="28" fill="#F6F8FB"/>
  <rect x="24" y="24" width="752" height="452" rx="28" fill="url(#bg)"/>
  <rect x="54" y="56" width="126" height="38" rx="19" fill="#FFFFFF" fill-opacity="0.16"/>
  <text x="87" y="81" fill="#FFFFFF" font-family="Arial, Helvetica, sans-serif" font-size="22" font-weight="700">ECCV 2024</text>
  <text x="56" y="170" fill="#FFFFFF" font-family="Arial, Helvetica, sans-serif" font-size="52" font-weight="700">ControlLLM</text>
  <text x="56" y="216" fill="#FFF0D6" font-family="Arial, Helvetica, sans-serif" font-size="28">Augment language models with</text>
  <text x="56" y="251" fill="#FFF0D6" font-family="Arial, Helvetica, sans-serif" font-size="28">tools by searching on graphs</text>
  <rect x="56" y="330" width="110" height="44" rx="22" fill="#FFFFFF" fill-opacity="0.14"/>
  <rect x="178" y="330" width="98" height="44" rx="22" fill="#FFFFFF" fill-opacity="0.14"/>
  <rect x="288" y="330" width="104" height="44" rx="22" fill="#FFFFFF" fill-opacity="0.14"/>
  <text x="86" y="358" fill="#FFFFFF" font-family="Arial, Helvetica, sans-serif" font-size="22">Tools</text>
  <text x="208" y="358" fill="#FFFFFF" font-family="Arial, Helvetica, sans-serif" font-size="22">Graphs</text>
  <text x="316" y="358" fill="#FFFFFF" font-family="Arial, Helvetica, sans-serif" font-size="22">Search</text>
  <circle cx="580" cy="172" r="24" fill="#FFFFFF" fill-opacity="0.72"/>
  <circle cx="676" cy="132" r="24" fill="#FFFFFF" fill-opacity="0.72"/>
  <circle cx="694" cy="244" r="24" fill="#FFFFFF" fill-opacity="0.72"/>
  <circle cx="584" cy="278" r="24" fill="#FFFFFF" fill-opacity="0.72"/>
  <circle cx="522" cy="228" r="24" fill="#FFFFFF" fill-opacity="0.72"/>
  <path d="M580 172L676 132L694 244L584 278L522 228L580 172Z" stroke="#FFF0D6" stroke-width="10" stroke-linejoin="round"/>
</svg>
