<svg xmlns="http://www.w3.org/2000/svg" width="800" height="500" viewBox="0 0 800 500" fill="none">
  <defs>
    <linearGradient id="bg" x1="48" y1="40" x2="744" y2="456" gradientUnits="userSpaceOnUse">
      <stop stop-color="#1D3557"/>
      <stop offset="1" stop-color="#457B9D"/>
    </linearGradient>
  </defs>
  <rect width="800" height="500" rx="28" fill="#F6F8FB"/>
  <rect x="24" y="24" width="752" height="452" rx="28" fill="url(#bg)"/>
  <rect x="54" y="56" width="146" height="38" rx="19" fill="#FFFFFF" fill-opacity="0.16"/>
  <text x="78" y="81" fill="#FFFFFF" font-family="Arial, Helvetica, sans-serif" font-size="22" font-weight="700">ARXIV 2025</text>
  <text x="56" y="164" fill="#FFFFFF" font-family="Arial, Helvetica, sans-serif" font-size="52" font-weight="700">InternVL3.5</text>
  <text x="56" y="208" fill="#E5F0FA" font-family="Arial, Helvetica, sans-serif" font-size="28">Versatile open-source multimodal</text>
  <text x="56" y="243" fill="#E5F0FA" font-family="Arial, Helvetica, sans-serif" font-size="28">reasoning and efficient inference</text>
  <rect x="56" y="328" width="158" height="44" rx="22" fill="#FFFFFF" fill-opacity="0.14"/>
  <rect x="226" y="328" width="138" height="44" rx="22" fill="#FFFFFF" fill-opacity="0.14"/>
  <rect x="376" y="328" width="124" height="44" rx="22" fill="#FFFFFF" fill-opacity="0.14"/>
  <text x="92" y="358" fill="#FFFFFF" font-family="Arial, Helvetica, sans-serif" font-size="22">MLLM</text>
  <text x="258" y="358" fill="#FFFFFF" font-family="Arial, Helvetica, sans-serif" font-size="22">Reasoning</text>
  <text x="410" y="358" fill="#FFFFFF" font-family="Arial, Helvetica, sans-serif" font-size="22">Efficiency</text>
  <rect x="520" y="96" width="204" height="290" rx="28" fill="#FFFFFF" fill-opacity="0.12"/>
  <rect x="548" y="126" width="148" height="98" rx="18" fill="#FFFFFF" fill-opacity="0.22"/>
  <rect x="548" y="244" width="68" height="110" rx="18" fill="#FFFFFF" fill-opacity="0.18"/>
  <rect x="628" y="244" width="68" height="110" rx="18" fill="#FFFFFF" fill-opacity="0.18"/>
  <circle cx="590" cy="174" r="18" fill="#FFFFFF" fill-opacity="0.55"/>
  <path d="M620 174H664" stroke="#FFFFFF" stroke-width="12" stroke-linecap="round" stroke-opacity="0.7"/>
</svg>
