<svg xmlns="http://www.w3.org/2000/svg" width="800" height="500" viewBox="0 0 800 500" fill="none">
  <defs>
    <linearGradient id="bg" x1="40" y1="36" x2="748" y2="460" gradientUnits="userSpaceOnUse">
      <stop stop-color="#5B2A86"/>
      <stop offset="1" stop-color="#1C7ED6"/>
    </linearGradient>
  </defs>
  <rect width="800" height="500" rx="28" fill="#F6F8FB"/>
  <rect x="24" y="24" width="752" height="452" rx="28" fill="url(#bg)"/>
  <rect x="56" y="56" width="142" height="38" rx="19" fill="#FFFFFF" fill-opacity="0.16"/>
  <text x="88" y="81" fill="#FFFFFF" font-family="Arial, Helvetica, sans-serif" font-size="22" font-weight="700">ARXIV 2023</text>
  <text x="56" y="170" fill="#FFFFFF" font-family="Arial, Helvetica, sans-serif" font-size="54" font-weight="700">InternGPT</text>
  <text x="56" y="214" fill="#E7ECFF" font-family="Arial, Helvetica, sans-serif" font-size="28">Vision-centric tasks through</text>
  <text x="56" y="249" fill="#E7ECFF" font-family="Arial, Helvetica, sans-serif" font-size="28">interaction beyond language</text>
  <rect x="56" y="330" width="120" height="44" rx="22" fill="#FFFFFF" fill-opacity="0.14"/>
  <rect x="188" y="330" width="132" height="44" rx="22" fill="#FFFFFF" fill-opacity="0.14"/>
  <rect x="332" y="330" width="128" height="44" rx="22" fill="#FFFFFF" fill-opacity="0.14"/>
  <text x="96" y="358" fill="#FFFFFF" font-family="Arial, Helvetica, sans-serif" font-size="22">Vision</text>
  <text x="220" y="358" fill="#FFFFFF" font-family="Arial, Helvetica, sans-serif" font-size="22">ChatGPT</text>
  <text x="362" y="358" fill="#FFFFFF" font-family="Arial, Helvetica, sans-serif" font-size="22">Agents</text>
  <rect x="528" y="98" width="192" height="278" rx="30" fill="#FFFFFF" fill-opacity="0.12"/>
  <rect x="558" y="132" width="132" height="86" rx="18" fill="#FFFFFF" fill-opacity="0.2"/>
  <circle cx="592" cy="175" r="16" fill="#FFFFFF" fill-opacity="0.72"/>
  <path d="M622 175H662" stroke="#FFFFFF" stroke-width="12" stroke-linecap="round" stroke-opacity="0.78"/>
  <rect x="558" y="240" width="132" height="104" rx="22" fill="#FFFFFF" fill-opacity="0.16"/>
  <path d="M584 286L608 306L654 262" stroke="#FFFFFF" stroke-width="14" stroke-linecap="round" stroke-linejoin="round"/>
</svg>
