<svg xmlns="http://www.w3.org/2000/svg" width="800" height="500" viewBox="0 0 800 500" fill="none">
  <defs>
    <linearGradient id="bg" x1="40" y1="40" x2="748" y2="458" gradientUnits="userSpaceOnUse">
      <stop stop-color="#1E3A8A"/>
      <stop offset="1" stop-color="#2563EB"/>
    </linearGradient>
  </defs>
  <rect width="800" height="500" rx="28" fill="#F6F8FB"/>
  <rect x="24" y="24" width="752" height="452" rx="28" fill="url(#bg)"/>
  <rect x="54" y="56" width="126" height="38" rx="19" fill="#FFFFFF" fill-opacity="0.16"/>
  <text x="86" y="81" fill="#FFFFFF" font-family="Arial, Helvetica, sans-serif" font-size="22" font-weight="700">ICCV 2021</text>
  <text x="56" y="170" fill="#FFFFFF" font-family="Arial, Helvetica, sans-serif" font-size="60" font-weight="700">TAM</text>
  <text x="56" y="218" fill="#E2ECFF" font-family="Arial, Helvetica, sans-serif" font-size="28">Temporal adaptive module</text>
  <text x="56" y="253" fill="#E2ECFF" font-family="Arial, Helvetica, sans-serif" font-size="28">for video recognition</text>
  <rect x="56" y="330" width="130" height="44" rx="22" fill="#FFFFFF" fill-opacity="0.14"/>
  <rect x="198" y="330" width="142" height="44" rx="22" fill="#FFFFFF" fill-opacity="0.14"/>
  <rect x="352" y="330" width="120" height="44" rx="22" fill="#FFFFFF" fill-opacity="0.14"/>
  <text x="92" y="358" fill="#FFFFFF" font-family="Arial, Helvetica, sans-serif" font-size="22">Temporal</text>
  <text x="230" y="358" fill="#FFFFFF" font-family="Arial, Helvetica, sans-serif" font-size="22">Adaptive</text>
  <text x="386" y="358" fill="#FFFFFF" font-family="Arial, Helvetica, sans-serif" font-size="22">Video</text>
  <rect x="510" y="108" width="214" height="272" rx="28" fill="#FFFFFF" fill-opacity="0.12"/>
  <rect x="540" y="144" width="28" height="180" rx="14" fill="#FFFFFF" fill-opacity="0.82"/>
  <rect x="586" y="176" width="28" height="148" rx="14" fill="#FFFFFF" fill-opacity="0.62"/>
  <rect x="632" y="128" width="28" height="196" rx="14" fill="#FFFFFF" fill-opacity="0.82"/>
  <rect x="678" y="196" width="28" height="128" rx="14" fill="#FFFFFF" fill-opacity="0.62"/>
</svg>
