<svg xmlns="http://www.w3.org/2000/svg" width="800" height="500" viewBox="0 0 800 500" fill="none">
  <defs>
    <linearGradient id="bg" x1="48" y1="40" x2="752" y2="460" gradientUnits="userSpaceOnUse">
      <stop stop-color="#A63A50"/>
      <stop offset="1" stop-color="#F08A5D"/>
    </linearGradient>
  </defs>
  <rect width="800" height="500" rx="28" fill="#F6F8FB"/>
  <rect x="24" y="24" width="752" height="452" rx="28" fill="url(#bg)"/>
  <rect x="54" y="56" width="134" height="38" rx="19" fill="#FFFFFF" fill-opacity="0.16"/>
  <text x="83" y="81" fill="#FFFFFF" font-family="Arial, Helvetica, sans-serif" font-size="22" font-weight="700">CVPR 2025</text>
  <text x="56" y="172" fill="#FFFFFF" font-family="Arial, Helvetica, sans-serif" font-size="54" font-weight="700">VidMuse</text>
  <text x="56" y="218" fill="#FFE8DD" font-family="Arial, Helvetica, sans-serif" font-size="28">A simple video-to-music generation</text>
  <text x="56" y="253" fill="#FFE8DD" font-family="Arial, Helvetica, sans-serif" font-size="28">framework with long-short-term modeling</text>
  <rect x="56" y="330" width="126" height="44" rx="22" fill="#FFFFFF" fill-opacity="0.14"/>
  <rect x="194" y="330" width="126" height="44" rx="22" fill="#FFFFFF" fill-opacity="0.14"/>
  <rect x="332" y="330" width="162" height="44" rx="22" fill="#FFFFFF" fill-opacity="0.14"/>
  <text x="92" y="358" fill="#FFFFFF" font-family="Arial, Helvetica, sans-serif" font-size="22">Video</text>
  <text x="230" y="358" fill="#FFFFFF" font-family="Arial, Helvetica, sans-serif" font-size="22">Music</text>
  <text x="364" y="358" fill="#FFFFFF" font-family="Arial, Helvetica, sans-serif" font-size="22">Generation</text>
  <circle cx="634" cy="198" r="94" fill="#FFFFFF" fill-opacity="0.12"/>
  <path d="M612 148V266" stroke="#FFFFFF" stroke-width="16" stroke-linecap="round"/>
  <path d="M612 148C636 156 666 154 684 142V248" stroke="#FFFFFF" stroke-width="16" stroke-linecap="round" stroke-linejoin="round"/>
  <circle cx="590" cy="286" r="28" fill="#FFFFFF" fill-opacity="0.72"/>
  <circle cx="662" cy="270" r="28" fill="#FFFFFF" fill-opacity="0.72"/>
</svg>
